<?xml version="1.0" encoding="UTF-8"?>
<svg id="Layer_2" data-name="Layer 2" xmlns="http://www.w3.org/2000/svg" xmlns:xlink="http://www.w3.org/1999/xlink" viewBox="0 0 2726.83 695.26">
  <defs>
    <style>
      .cls-1 {
        fill: url(#linear-gradient);
      }
    </style>
    <linearGradient id="linear-gradient" x1="507.89" y1="-507.89" x2="2218.94" y2="1203.15" gradientUnits="userSpaceOnUse">
      <stop offset="0" stop-color="#2b2b2b"/>
      <stop offset=".29" stop-color="#141414"/>
      <stop offset=".59" stop-color="#242424"/>
      <stop offset="1" stop-color="#141414"/>
    </linearGradient>
  </defs>
  <g id="Layer_1-2" data-name="Layer 1">
    <path class="cls-1" d="M1616.51,207.79l-10.55-3.9,10.55-3.9,3.9-10.55,3.9,10.55,10.55,3.9-10.55,3.9-3.9,10.55-3.9-10.55ZM1301.07,388.26h124.7c.27-1.89.47-3.81.57-5.76.05-1.07.08-2.15.08-3.24h-126c0,1.09.03,2.17.08,3.24.1,1.95.3,3.86.57,5.76ZM1336.1,436.05c1.84.88,3.72,1.68,5.65,2.39,1.93.71,3.9,1.32,5.92,1.84,4.03,1.04,8.21,1.68,12.5,1.9,1.07.05,2.15.08,3.24.08s2.17-.03,3.24-.08c4.29-.22,8.48-.87,12.5-1.9,2.01-.52,3.99-1.13,5.92-1.84s3.82-1.5,5.65-2.39c1.76-.85,3.48-1.78,5.14-2.79h-64.92c1.67,1,3.38,1.94,5.14,2.79ZM1397.86,258.33l-7.26,2.69,7.26,2.69,2.69,7.26,2.69-7.26,7.26-2.69-7.26-2.69-2.69-7.26-2.69,7.26ZM1314.17,234.59l-4.52,1.67,4.52,1.67,1.67,4.53,1.67-4.53,4.53-1.67-4.53-1.67-1.67-4.53-1.67,4.53ZM1505.52,271.26l-7.33,34.86,56.6,10.14-9.47-45h-39.79ZM1312.93,416.96c1.94,2.6,4.09,5.04,6.41,7.31h88.15c2.32-2.27,4.47-4.71,6.41-7.31.41-.55.81-1.13,1.2-1.69h-103.38c.4.57.79,1.14,1.2,1.69ZM1556.92,232.59c-1.41-13.63-14.97-24.33-31.5-24.33s-30.09,10.7-31.5,24.33c-29.09,4.89-49.5,16.33-49.5,29.67h162c0-13.34-20.41-24.79-49.5-29.67ZM1306.49,406.26h113.86c.83-1.74,1.58-3.52,2.25-5.34.44-1.2.83-2.43,1.2-3.66h-120.75c.37,1.23.76,2.46,1.2,3.66.67,1.82,1.42,3.6,2.25,5.34ZM2726.83,0v154.26h-915.42l-601,81v18l287.76,52.85-15.41,73.15h85.24l-13.21-62.75,256.61,17.75h915.42v45h-1158.79l12.97,61.62,25.4-7.62,205,31.5h915.42v139.5h-1102.42l18,18h1084.42v73H0v-64h1102.42l9-9h81l9,9h63l9,9h54l18-18h63l18-18h-24.12v-30.39h10.94l5.47-5.47-5.47-5.47h-10.94v-4.94h10.94v-10.94h-10.94v-5.79h-5.47v5.79h-10.94l-5.47,5.47,5.47,5.47h10.94v4.94h-10.94v10.94h10.94v30.39h-56.91v-18h13.5l-6.75-27h6.75l-18-72-18,72h6.75l-6.75,27h13.5v18h-45v-18h13.5l-6.75-27h6.75l-18-72-18,72h6.75l-6.75,27h13.5v18h-45v-18h13.5l-6.75-27h6.75l-18-72-18,72h6.75l-6.75,27h13.5v18h-45v-18h13.5l-6.75-27h6.75l-18-72-18,72h6.75l-6.75,27h13.5v18h-45v-18h13.5l-6.75-27h6.75l-18-72-18,72h6.75l-6.75,27h13.5v18H0v-139.5h915.42l196-13.5,30.24,6.72-2.52,30.3,9.14-3.26,1.79-25.17.37.08,6.72-80.67h61.5l6.52,78.29,30.23-10.79,117,40.5h54l35.87-10.76-26.91,127.76h41.18c-4.36,0-7.97-4.83-8.59-11.11h-8.8v-26.09h52.19l17.4-8.7h56.54v-21.74h-49.29l-7.25,21.74h-52.19l8.7-26.09h62.59l5.7-5.7c-3.74.7-7.25-.04-9.6-2.4-2.39-2.39-3.11-5.98-2.35-9.79l-5.79-5.79-.35-6.72,7.8,7.8c1.03-2.02,2.43-4,4.22-5.79,6.58-6.58,15.66-8.16,20.29-3.53,4.63,4.63,3.05,13.71-3.53,20.29-1.79,1.79-3.76,3.19-5.78,4.22l7.4,7.4h23.78v60.89h-8.8c-.62,6.29-4.23,11.11-8.59,11.11h43.14l-34.39-163.37-118.7,35.61,20.42-97.24h-56.3c0-34.79-28.21-63-63-63s-63,28.21-63,63h-81.75l-7.49-90h-46.51l-7.5,90h-1.35v-.05s-7.62,0-7.62,0v.05H0V0h2726.83ZM1121.37,293.81l-7.26-2.69-2.69-7.26-2.69,7.26-7.26,2.69,7.26,2.69,2.69,7.26,2.69-7.26,7.26-2.69ZM1144.28,162.52l-10.55-3.9-3.9-10.55-3.9,10.55-10.55,3.9,10.55,3.9,3.9,10.55,3.9-10.55,10.55-3.9ZM1472.21,575.75c0-2.4-1.95-4.35-4.35-4.35s-4.35,1.95-4.35,4.35,1.95,4.35,4.35,4.35,4.35-1.95,4.35-4.35ZM1498.31,575.75c0,2.4,1.95,4.35,4.35,4.35s4.35-1.95,4.35-4.35-1.95-4.35-4.35-4.35-4.35,1.95-4.35,4.35ZM1524.4,604.26c-4.36,0-7.97-4.83-8.59-11.11h-21.96c-.62,6.29-4.23,11.11-8.59,11.11h39.14ZM1533.1,597.74c2.4,0,4.35-2.92,4.35-6.52s-1.95-6.52-4.35-6.52-4.35,2.92-4.35,6.52,1.95,6.52,4.35,6.52ZM1563.54,604.26c-4.36,0-7.97-4.83-8.59-11.11h-13.26c-.62,6.29-4.23,11.11-8.59,11.11h30.44ZM1572.24,597.74c2.4,0,4.35-2.92,4.35-6.52s-1.95-6.52-4.35-6.52-4.35,2.92-4.35,6.52,1.95,6.52,4.35,6.52ZM1607.54,348.19l4.53,1.67,1.67,4.53,1.67-4.53,4.53-1.67-4.53-1.67-1.67-4.53-1.67,4.53-4.53,1.67ZM1450.42,325.1l4.57,1.69,1.69,4.57,1.69-4.57,4.57-1.69-4.57-1.69-1.69-4.57-1.69,4.57-4.57,1.69ZM1248.78,339.31l7.26,2.69,2.69,7.26,2.69-7.26,7.26-2.69-7.26-2.69-2.69-7.26-2.69,7.26-7.26,2.69ZM1156.42,262.2v18h9v.07s0,0,0,0h45.01v-.07s8.99,0,8.99,0v-18h-63ZM1210.42,226.26l-22.5-18-22.5,18v27h9v-27h36ZM1258.73,184.38l-7.26-2.69-2.69-7.26-2.69,7.26-7.26,2.69,7.26,2.69,2.69,7.26,2.69-7.26,7.26-2.69ZM1394.41,141.71l-10.55-3.9-3.9-10.55-3.9,10.55-10.55,3.9,10.55,3.9,3.9,10.55,3.9-10.55,10.55-3.9ZM1534.42,155.21l-7.26-2.69-2.69-7.26-2.69,7.26-7.26,2.69,7.26,2.69,2.69,7.26,2.69-7.26,7.26-2.69Z"/>
  </g>
</svg>